Coordinates
version=1
nRows=24
nColumns=22
inDegrees=yes

Units are S.I. units (second, meters, Newtons, ...)
If the header above contains a line with 'inDegrees', this indicates whether rotational values are in degrees (yes) or radians (no).

endheader
time	pelvis_tilt	pelvis_list	pelvis_rotation	pelvis_tx	pelvis_ty	pelvis_tz	hip_flexion_r	hip_adduction_r	hip_rotation_r	knee_angle_r	ankle_angle_r	subtalar_angle_r	hip_flexion_l	hip_adduction_l	hip_rotation_l	knee_angle_l	ankle_angle_l	subtalar_angle_l	lumbar_extension	lumbar_bending	lumbar_rotation
      2.74000000	     -1.59482132	     -2.03378123	    -49.21492982	     -0.26007810	      0.88935830	      0.12901182	    -11.32326686	      6.53408988	     15.23000299	    -21.20901899	     16.71471049	     -3.73277142	     25.01155929	    -10.77636148	     -5.85257511	    -15.56898509	      0.99102470	      7.60824684	     -8.64590195	      3.61569310	      3.99755678
      2.75000000	     -1.57324991	     -1.87221015	    -49.92002348	     -0.25189940	      0.88862490	      0.13421612	    -11.45156345	      6.10336192	     15.72634109	    -21.95897188	     16.37454269	     -3.34144824	     25.27153375	    -10.51315539	     -5.03133250	    -17.16784598	      0.36720621	      6.58571251	     -8.47282700	      3.34378671	      3.89222344
      2.76000000	     -1.55354737	     -1.66785116	    -50.60346343	     -0.24362267	      0.88807892	      0.13956605	    -11.48193474	      5.66432752	     16.21404352	    -22.80408908	     15.84196025	     -2.88240631	     25.54456490	    -10.22063212	     -4.29104367	    -18.74443672	     -0.25000490	      5.68664500	     -8.23435638	      3.03694072	      3.74690599
      2.77000000	     -1.52553294	     -1.46654021	    -51.25328345	     -0.23521935	      0.88773909	      0.14502397	    -11.43743102	      5.24312709	     16.63898636	    -23.78097270	     15.13666430	     -2.32500246	     25.83774785	     -9.93887680	     -3.74219830	    -20.38815504	     -0.71860577	      4.86241697	     -7.98500582	      2.73406180	      3.55734451
      2.78000000	     -1.46651227	     -1.27952551	    -51.88605270	     -0.22672504	      0.88766940	      0.15066052	    -11.33316248	      4.83632537	     17.01204929	    -24.90091093	     14.18592746	     -1.71991283	     26.08621857	     -9.67356026	     -3.39918849	    -22.04481904	     -1.01560418	      4.16748118	     -7.74779675	      2.41059109	      3.35796564
      2.79000000	     -1.36158873	     -1.12003183	    -52.51224456	     -0.21815837	      0.88788728	      0.15647208	    -11.16719169	      4.44568070	     17.33060807	    -26.20213681	     12.97643595	     -1.09038856	     26.24093496	     -9.42772860	     -3.28457267	    -23.66973863	     -1.09841800	      3.58857912	     -7.55017489	      2.06673280	      3.14331487
      2.80000000	     -1.19688652	     -0.98944941	    -53.13736050	     -0.20952463	      0.88839256	      0.16245141	    -10.93020641	      4.05616067	     17.54698584	    -27.70408978	     11.48559356	     -0.46162510	     26.26397724	     -9.18922081	     -3.38820878	    -25.22136505	     -0.96485876	      3.11001816	     -7.40205987	      1.68932889	      2.93106783
      2.81000000	     -0.96619877	     -0.87866106	    -53.75505034	     -0.20082453	      0.88915717	      0.16855813	    -10.60205457	      3.65362212	     17.62464136	    -29.41922484	      9.70164002	      0.14425526	     26.13104757	     -8.93179291	     -3.67487720	    -26.64112631	     -0.61996814	      2.70530229	     -7.30054377	      1.27012703	      2.68898796
      2.82000000	     -0.67607786	     -0.78317787	    -54.39644119	     -0.19217258	      0.89015366	      0.17475996	    -10.14069389	      3.23532287	     17.56833839	    -31.38131484	      7.61819920	      0.63834065	     25.82134082	     -8.65981239	     -4.12874991	    -27.86739330	     -0.15535741	      2.39294264	     -7.24708420	      0.80321782	      2.47068891
      2.83000000	     -0.34005178	     -0.68962604	    -55.04710605	     -0.18357663	      0.89132462	      0.18096968	     -9.51172492	      2.79409144	     17.34334584	    -33.58704464	      5.24735416	      1.00412060	     25.35391256	     -8.35313289	     -4.69872474	    -28.87719241	      0.41828351	      2.13958716	     -7.22571754	      0.29848855	      2.24513819
      2.84000000	      0.02156967	     -0.58990490	    -55.71096665	     -0.17511324	      0.89261101	      0.18714827	     -8.68201299	      2.33823195	     16.96668471	    -36.03855705	      2.62386154	      1.20062465	     24.74678015	     -8.01896243	     -5.36607586	    -29.64558482	      1.06010582	      1.95872107	     -7.21987274	     -0.23279158	      1.99889293
      2.85000000	      0.38640920	     -0.48379512	    -56.39290449	     -0.16684979	      0.89398036	      0.19322580	     -7.62834031	      1.87971034	     16.46970314	    -38.72674345	     -0.20930206	      1.24862999	     24.01745785	     -7.66526856	     -6.08527278	    -30.15794437	      1.73664413	      1.84966758	     -7.22824670	     -0.76917698	      1.74499876
      2.86000000	      0.75424507	     -0.33170017	    -57.10217964	     -0.15883183	      0.89532882	      0.19917541	     -6.31144321	      1.38910838	     15.88544957	    -41.65026718	     -3.10558692	      1.17770217	     23.23147645	     -7.28534776	     -6.93443920	    -30.46341231	      2.42285066	      1.72223240	     -7.21394270	     -1.33480076	      1.46122846
      2.87000000	      1.11153014	     -0.13998062	    -57.83427879	     -0.15109578	      0.89663746	      0.20494037	     -4.74287457	      0.88990546	     15.28487911	    -44.77232700	     -6.00670705	      0.96566573	     22.40411548	     -6.87753960	     -7.83624773	    -30.56274667	      3.10965313	      1.61690692	     -7.18317319	     -1.90995723	      1.13838606
      2.88000000	      1.45394741	      0.06593622	    -58.60078428	     -0.14366908	      0.89792490	      0.21050829	     -2.96129453	      0.39742883	     14.70215481	    -48.04077184	     -8.80920254	      0.69977640	     21.52685946	     -6.45941356	     -8.77785620	    -30.46653182	      3.73095987	      1.55791118	     -7.16102203	     -2.47128650	      0.81573205
      2.89000000	      1.79080693	      0.30932454	    -59.39451819	     -0.13653969	      0.89912862	      0.21588815	     -0.98594628	     -0.08817077	     14.20490753	    -51.39828102	    -11.38598190	      0.38937773	     20.64643915	     -6.01057368	     -9.76892652	    -30.23036561	      4.32611638	      1.49450781	     -7.12711040	     -3.04097758	      0.44556067
      2.90000000	      2.12296743	      0.54823269	    -60.20931592	     -0.12970844	      0.90029480	      0.22111059	      1.10330143	     -0.53355708	     13.80340450	    -54.75429085	    -13.65228980	      0.11517363	     19.74394037	     -5.55075949	    -10.77884383	    -29.88334584	      4.87245051	      1.43117130	     -7.11825541	     -3.59645670	      0.05650179
      2.91000000	      2.45198133	      0.78446682	    -61.04681584	     -0.12313656	      0.90141717	      0.22619847	      3.26609145	     -0.92571847	     13.52555902	    -58.03048310	    -15.48565953	     -0.11921562	     18.83758408	     -5.07341453	    -11.79362021	    -29.46164944	      5.37656704	      1.34539092	     -7.12652162	     -4.13558825	     -0.36871205
      2.92000000	      2.77082116	      0.98616626	    -61.89158726	     -0.11680444	      0.90253565	      0.23120751	      5.43121639	     -1.23418128	     13.33972190	    -61.13706285	    -16.82122463	     -0.29225244	     17.91566549	     -4.59977045	    -12.78472236	    -28.99252464	      5.84261050	      1.24107573	     -7.17310189	     -4.63734827	     -0.81674625
      2.93000000	      3.07120334	      1.13390736	    -62.73213485	     -0.11067576	      0.90368378	      0.23617392	      7.54348672	     -1.43838040	     13.21681609	    -64.00019072	    -17.60806238	     -0.41248349	     16.97428609	     -4.14374639	    -13.73067423	    -28.50056243	      6.26919054	      1.12531752	     -7.26641193	     -5.08264092	     -1.28801096
      2.94000000	      3.33782692	      1.21439718	    -63.54664266	     -0.10472004	      0.90487530	      0.24112139	      9.56453363	     -1.52326218	     13.10337592	    -66.56824271	    -17.83307168	     -0.50797423	     16.01854644	     -3.72347152	    -14.60564745	    -28.00933111	      6.66850065	      0.99913353	     -7.41022814	     -5.45159565	     -1.78438756
      2.95000000	      3.55252003	      1.21759791	    -64.30921416	     -0.09890481	      0.90613151	      0.24606394	     11.46524679	     -1.47903040	     12.93967418	    -68.80172709	    -17.54779479	     -0.61251373	     15.05242418	     -3.36111180	    -15.40166445	    -27.53353911	      7.03621521	      0.86300073	     -7.60731435	     -5.72187321	     -2.32218138
      2.96000000	      3.70508400	      1.14923568	    -65.01117145	     -0.09320552	      0.90746475	      0.25104169	     13.23715008	     -1.31205144	     12.68636903	    -70.67742908	    -16.87072526	     -0.76298654	     14.06709271	     -3.06159390	    -16.11456664	    -27.05006615	      7.38394816	      0.72412265	     -7.84186601	     -5.89026856	     -2.89930388
      2.97000000	      3.76232053	      0.98420063	    -65.63400886	     -0.08759362	      0.90890243	      0.25607710	     14.84471005	     -0.98554143	     12.31755385	    -72.17164654	    -15.88811135	     -0.87095743	     13.04209613	     -2.86208759	    -16.69213354	    -26.54661291	      7.75755781	      0.64877655	     -8.12498155	     -5.90743527	     -3.50386144
